<?xml version="1.0" standalone="no"?>
<!DOCTYPE svg PUBLIC "-//W3C//DTD SVG 20010904//EN"
 "http://www.w3.org/TR/2001/REC-SVG-20010904/DTD/svg10.dtd">
<svg version="1.0" xmlns="http://www.w3.org/2000/svg"
 width="1357.000000pt" height="1288.000000pt" viewBox="0 0 1357.000000 1288.000000"
 preserveAspectRatio="xMidYMid meet">

<g transform="translate(0.000000,1288.000000) scale(0.100000,-0.100000)"
fill="#000000" stroke="none">
<path d="M2220 7213 c-57 -104 -136 -242 -175 -308 -40 -66 -127 -217 -195
-335 -67 -118 -132 -230 -143 -249 l-20 -33 24 7 c204 61 472 233 734 472 106
97 268 270 314 335 15 23 15 23 -9 7 -151 -96 -188 -119 -192 -119 -3 0 -54
92 -114 205 -60 112 -112 204 -115 205 -3 0 -52 -84 -109 -187z m-59 -657 c5
3 9 3 9 1 0 -2 -19 -18 -43 -34 l-43 -31 -91 76 -91 76 31 49 30 49 95 -96
c52 -52 98 -93 103 -90z"/>
<path d="M2983 7291 c-306 -454 -781 -877 -1324 -1179 l-104 -58 -92 -159
c-50 -88 -92 -164 -92 -168 -1 -10 23 3 164 91 505 315 991 751 1309 1177 41
55 90 127 109 161 37 67 111 234 105 239 -1 1 -35 -45 -75 -104z m-254 -360
c-29 -39 -16 -60 19 -29 14 13 -12 -24 -58 -82 -47 -58 -167 -188 -267 -289
l-182 -184 -40 34 c-21 19 -38 37 -38 41 1 4 47 44 102 88 145 118 326 283
407 372 72 80 95 100 57 49z"/>
<path d="M3039 7123 c-84 -147 -275 -377 -536 -645 -84 -86 -153 -160 -153
-164 0 -4 3 -4 7 0 4 3 28 -14 53 -39 l47 -46 77 82 c167 178 338 425 445 642
67 138 105 227 97 227 -3 0 -19 -26 -37 -57z"/>
<path d="M3871 6953 c-66 -248 -257 -1034 -253 -1038 3 -3 65 -5 138 -5 151 0
132 -14 155 118 l12 72 103 0 102 0 11 -67 c6 -38 14 -80 17 -95 l6 -28 133 0
c74 0 136 3 138 8 5 7 -238 1045 -248 1062 -4 6 -69 10 -155 10 l-149 0 -10
-37z m203 -568 l7 -35 -57 0 c-53 0 -56 1 -51 23 3 12 15 78 28 147 l23 125
22 -113 c12 -62 25 -128 28 -147z"/>
<path d="M4512 6982 c-10 -7 -12 -121 -10 -538 l3 -529 125 0 125 0 5 207 5
208 80 -210 80 -210 266 0 267 0 5 23 c3 12 11 55 18 95 l12 72 103 0 102 0
11 -67 c6 -38 14 -80 17 -95 l6 -28 133 0 c74 0 136 3 138 8 5 7 -238 1045
-248 1062 -4 6 -69 10 -155 10 l-149 0 -9 -32 c-5 -18 -60 -239 -123 -490 -62
-252 -117 -458 -120 -458 -3 0 -50 102 -103 226 -64 149 -96 233 -92 247 3 12
50 125 105 252 74 170 97 233 89 242 -7 9 -48 13 -144 13 l-134 0 -15 -32 c-8
-18 -44 -114 -79 -213 l-65 -180 0 206 c-1 179 -3 208 -17 213 -23 9 -217 7
-232 -2z m1132 -597 l7 -35 -57 0 c-53 0 -56 1 -51 23 3 12 15 78 28 147 l23
125 22 -113 c12 -62 25 -128 28 -147z"/>
<path d="M6092 6982 c-10 -7 -12 -121 -10 -538 l3 -529 117 -3 118 -3 2 276 3
275 145 -275 145 -274 113 -1 112 0 -2 538 -3 537 -104 3 c-67 2 -108 -1 -117
-9 -11 -9 -14 -60 -14 -263 l0 -251 -141 263 -141 262 -106 0 c-59 0 -113 -4
-120 -8z"/>
<path d="M6982 6982 c-10 -7 -12 -121 -10 -538 l3 -529 207 -3 c189 -2 211 -1
262 19 205 76 317 373 261 695 -38 216 -150 332 -346 354 -101 12 -359 13
-377 2z m358 -291 c77 -40 117 -163 99 -305 -16 -130 -68 -195 -160 -204 l-49
-5 0 267 0 266 38 0 c20 0 53 -8 72 -19z"/>
<path d="M7991 6953 c-66 -248 -257 -1034 -253 -1038 3 -3 65 -5 138 -5 151 0
132 -14 155 118 l12 72 103 0 102 0 11 -67 c6 -38 14 -80 17 -95 l6 -28 133 0
c74 0 136 3 138 8 5 7 -238 1045 -248 1062 -4 6 -69 10 -155 10 l-149 0 -10
-37z m203 -568 l7 -35 -57 0 c-53 0 -56 1 -51 23 3 12 15 78 28 147 l23 125
22 -113 c12 -62 25 -128 28 -147z"/>
<path d="M8554 6975 c-4 -8 45 -162 107 -343 l113 -327 6 -195 5 -195 128 -3
127 -3 0 187 0 186 113 318 112 318 5 -101 5 -102 105 -5 105 -5 3 -398 2
-398 128 3 127 3 3 397 2 397 103 3 102 3 3 132 c3 131 2 133 -20 138 -13 3
-225 4 -473 3 l-450 -3 -44 -180 -44 -180 -46 180 -46 180 -138 3 c-116 2
-138 0 -143 -13z"/>
<path d="M10042 6983 c-9 -7 -12 -122 -10 -539 l3 -529 125 0 125 0 3 178 c3
191 7 204 47 136 11 -19 36 -97 56 -174 l36 -140 280 -2 281 -3 5 23 c3 12 11
55 18 95 l12 72 103 0 102 0 11 -67 c6 -38 14 -80 17 -95 l6 -28 133 0 c74 0
136 3 138 8 5 7 -238 1045 -248 1062 -4 6 -69 10 -155 10 l-149 0 -10 -37 c-6
-21 -65 -258 -132 -527 -70 -280 -125 -482 -129 -475 -5 8 -24 74 -45 147 -44
161 -63 208 -105 256 l-32 36 50 45 c72 65 96 125 96 245 0 79 -4 104 -23 148
-29 65 -88 117 -156 138 -57 18 -431 31 -453 17z m341 -274 c11 -14 17 -39 17
-76 0 -65 -29 -103 -80 -103 l-30 0 0 106 0 107 38 -6 c20 -4 45 -16 55 -28z
m791 -324 l7 -35 -57 0 c-53 0 -56 1 -51 23 3 12 15 78 28 147 l23 125 22
-113 c12 -62 25 -128 28 -147z"/>
<path d="M11612 6982 c-10 -7 -12 -121 -10 -538 l3 -529 207 -3 c189 -2 211
-1 262 19 205 76 317 373 261 695 -38 216 -150 332 -346 354 -101 12 -359 13
-377 2z m358 -291 c77 -40 117 -163 99 -305 -16 -130 -68 -195 -160 -204 l-49
-5 0 267 0 266 38 0 c20 0 53 -8 72 -19z"/>
<path d="M12442 6982 c-10 -7 -12 -121 -10 -538 l3 -529 258 -3 257 -2 0 135
0 135 -130 0 -130 0 0 65 0 64 113 3 112 3 3 133 3 132 -116 0 -115 0 0 65 0
65 119 0 c99 0 120 3 125 16 12 30 7 239 -6 252 -14 14 -464 17 -486 4z"/>
<path d="M3030 6822 c-218 -419 -707 -947 -1165 -1258 l-109 -74 168 0 169 0
70 56 c291 236 562 574 741 924 76 147 186 423 174 435 -2 2 -23 -35 -48 -83z
m-236 -406 c-8 -20 29 -39 46 -23 23 21 -59 -124 -136 -240 -41 -62 -80 -113
-87 -113 -7 1 -32 18 -56 40 l-45 39 70 73 c38 40 100 110 138 156 38 45 71
82 72 82 2 0 1 -6 -2 -14z"/>
<path d="M2995 6488 c-38 -114 -177 -367 -264 -479 l-50 -64 48 -90 c27 -49
81 -152 121 -227 l72 -138 219 0 c120 0 219 1 219 3 0 2 -50 95 -111 207 -61
113 -148 275 -194 360 l-83 155 23 160 c12 88 21 161 20 163 -2 2 -11 -21 -20
-50z m310 -986 c-3 -3 -11 0 -18 7 -9 10 -8 11 6 5 10 -3 15 -9 12 -12z"/>
<path d="M2289 6274 c-19 -23 -337 -278 -469 -376 -153 -114 -326 -226 -450
-292 -71 -37 -108 -63 -121 -85 l-19 -31 189 0 189 0 93 67 c188 134 388 302
557 468 l174 170 -54 47 c-58 52 -69 56 -89 32z"/>
</g>
</svg>
