<?xml version="1.0" standalone="no"?>
<!DOCTYPE svg PUBLIC "-//W3C//DTD SVG 20010904//EN"
 "http://www.w3.org/TR/2001/REC-SVG-20010904/DTD/svg10.dtd">
<svg version="1.0" xmlns="http://www.w3.org/2000/svg"
 width="1357.000000pt" height="1288.000000pt" viewBox="0 0 1357.000000 1288.000000"
 preserveAspectRatio="xMidYMid meet">

<g transform="translate(0.000000,1288.000000) scale(0.100000,-0.100000)"
fill="#000000" stroke="none">
<path d="M2220 7213 c-57 -104 -136 -242 -175 -308 -40 -66 -127 -217 -195
-335 -67 -118 -132 -230 -143 -249 l-20 -33 24 7 c204 61 472 233 734 472 106
97 268 270 314 335 15 23 15 23 -9 7 -151 -96 -188 -119 -192 -119 -3 0 -54
92 -114 205 -60 112 -112 204 -115 205 -3 0 -52 -84 -109 -187z m-59 -657 c5
3 9 3 9 1 0 -2 -19 -18 -43 -34 l-43 -31 -91 76 -91 76 31 49 30 49 95 -96
c52 -52 98 -93 103 -90z"/>
<path d="M2983 7291 c-306 -454 -781 -877 -1324 -1179 l-104 -58 -92 -159
c-50 -88 -92 -164 -92 -168 -1 -10 23 3 164 91 505 315 991 751 1309 1177 41
55 90 127 109 161 37 67 111 234 105 239 -1 1 -35 -45 -75 -104z m-254 -360
c-29 -39 -16 -60 19 -29 14 13 -12 -24 -58 -82 -47 -58 -167 -188 -267 -289
l-182 -184 -40 34 c-21 19 -38 37 -38 41 1 4 47 44 102 88 145 118 326 283
407 372 72 80 95 100 57 49z"/>
<path d="M3039 7123 c-84 -147 -275 -377 -536 -645 -84 -86 -153 -160 -153
-164 0 -4 3 -4 7 0 4 3 28 -14 53 -39 l47 -46 77 82 c167 178 338 425 445 642
67 138 105 227 97 227 -3 0 -19 -26 -37 -57z"/>
<path d="M3030 6822 c-218 -419 -707 -947 -1165 -1258 l-109 -74 168 0 169 0
70 56 c291 236 562 574 741 924 76 147 186 423 174 435 -2 2 -23 -35 -48 -83z
m-236 -406 c-8 -20 29 -39 46 -23 23 21 -59 -124 -136 -240 -41 -62 -80 -113
-87 -113 -7 1 -32 18 -56 40 l-45 39 70 73 c38 40 100 110 138 156 38 45 71
82 72 82 2 0 1 -6 -2 -14z"/>
<path d="M2995 6488 c-38 -114 -177 -367 -264 -479 l-50 -64 48 -90 c27 -49
81 -152 121 -227 l72 -138 219 0 c120 0 219 1 219 3 0 2 -50 95 -111 207 -61
113 -148 275 -194 360 l-83 155 23 160 c12 88 21 161 20 163 -2 2 -11 -21 -20
-50z m310 -986 c-3 -3 -11 0 -18 7 -9 10 -8 11 6 5 10 -3 15 -9 12 -12z"/>
<path d="M2289 6274 c-19 -23 -337 -278 -469 -376 -153 -114 -326 -226 -450
-292 -71 -37 -108 -63 -121 -85 l-19 -31 189 0 189 0 93 67 c188 134 388 302
557 468 l174 170 -54 47 c-58 52 -69 56 -89 32z"/>
</g>
</svg>
